<svg xmlns="http://www.w3.org/2000/svg" xmlns:xlink="http://www.w3.org/1999/xlink" width="102.626" height="96" viewBox="0 0 102.626 96">
  <defs>
    <linearGradient id="linear-gradient" x1="-2.031" y1="-7.774" x2="10.668" y2="5.718" gradientUnits="objectBoundingBox">
      <stop offset="0" stop-color="#00be9b"/>
      <stop offset="1" stop-color="#009dd9"/>
    </linearGradient>
  </defs>
  <g id="shop" transform="translate(0 -3)">
    <g id="Group_219" data-name="Group 219" transform="translate(0 3)">
      <path id="Path_80" data-name="Path 80" d="M19.05,5.24A6.42,6.42,0,0,1,23.925,3H78.7a6.42,6.42,0,0,1,4.875,2.24l16.734,19.481a9.587,9.587,0,0,1,2.315,6.246V32.6a15.239,15.239,0,0,1-27.26,9.331,15.257,15.257,0,0,1-24.053,0,15.257,15.257,0,0,1-24.053,0A15.239,15.239,0,0,1,0,32.6V30.968a9.587,9.587,0,0,1,2.315-6.246L19.056,5.234ZM30.467,32.6a8.819,8.819,0,0,0,17.639,0,3.207,3.207,0,0,1,6.414,0,8.819,8.819,0,0,0,17.639,0,3.207,3.207,0,0,1,6.414,0,8.819,8.819,0,0,0,17.639,0V30.968a3.2,3.2,0,0,0-.77-2.08L78.7,9.4H23.925L7.184,28.888a3.2,3.2,0,0,0-.77,2.08V32.6a8.819,8.819,0,0,0,17.639,0,3.207,3.207,0,0,1,6.414,0ZM9.621,51a3.2,3.2,0,0,1,3.207,3.2V92.6h6.414v-32a6.407,6.407,0,0,1,6.414-6.4H44.9a6.407,6.407,0,0,1,6.414,6.4v32H89.8V54.2a3.207,3.207,0,0,1,6.414,0V92.6h3.207a3.2,3.2,0,1,1,0,6.4H3.207a3.2,3.2,0,1,1,0-6.4H6.414V54.2A3.2,3.2,0,0,1,9.621,51ZM25.657,92.6H44.9v-32H25.657Zm32.071-32a6.407,6.407,0,0,1,6.414-6.4H76.97a6.407,6.407,0,0,1,6.414,6.4V79.8a6.407,6.407,0,0,1-6.414,6.4H64.141a6.407,6.407,0,0,1-6.414-6.4Zm19.242,0H64.141V79.8H76.97Z" transform="translate(0 -3)" fill="url(#linear-gradient)"/>
    </g>
  </g>
</svg>
